<svg xmlns="http://www.w3.org/2000/svg" width="1639" height="300" viewBox="0 0 1639 300" fill="none" xmlns:c2pa="http://c2pa.org/manifest"><metadata><c2pa:manifest>AAAWgmp1bWIAAAAeanVtZGMycGEAEQAQgAAAqgA4m3EDYzJwYQAAABZcanVtYgAAAEdqdW1kYzJtYQARABCAAACqADibcQN1cm46YzJwYTo4N2FlMGU3Zi1hYWE1LTQ1MjctODhjOS01Y2IwOTI0NTI1YWUAAAADl2p1bWIAAAApanVtZGMyYXMAEQAQgAAAqgA4m3EDYzJwYS5hc3NlcnRpb25zAAAAALxqdW1iAAAARGp1bWRjYm9yABEAEIAAAKoAOJtxE2MycGEuaW5ncmVkaWVudC52MwAAAAAYYzJzaOfPCM/qlS6wVYEagVJsJvwAAABwY2JvcqNpZGM6Zm9ybWF0bWltYWdlL3N2Zyt4bWxqaW5zdGFuY2VJRHgseG1wOmlpZDo2Mjg3MDM0Zi0zYTY3LTQyMzMtYjFkMy1mOWI2MTcyM2M3YzlscmVsYXRpb25zaGlwaHBhcmVudE9mAAAB4mp1bWIAAABBanVtZGNib3IAEQAQgAAAqgA4m3ETYzJwYS5hY3Rpb25zLnYyAAAAABhjMnNocas1uv1jDOuNbEC5LatVWgAAAZljYm9yomdhY3Rpb25zgqJmYWN0aW9ua2MycGEub3BlbmVkanBhcmFtZXRlcnOha2luZ3JlZGllbnRzgaJjdXJseC1zZWxmI2p1bWJmPWMycGEuYXNzZXJ0aW9ucy9jMnBhLmluZ3JlZGllbnQudjNkaGFzaFggrJyoqHpmQF2WEX8k73oYawj+vWsIMA7kjlTaxtqbujakZmFjdGlvbngdY29tLmFudGhyb3BpYy5jbGF1ZGUucHJvdmlkZWRqcGFyYW1ldGVyc6F4H2NvbS5hbnRocm9waWMub3JpZ2luLWNvbmZpZGVuY2VndW5rbm93bmtkZXNjcmlwdGlvbnhmQ2xhdWRlIHByb3ZpZGVkIHRoaXMgZmlsZSBhdCB0aGUgcmVxdWVzdCBvZiBhIHVzZXIgYW5kIG1heSBoYXZlIGNyZWF0ZWQgb3IgbW9kaWZpZWQgdGhlIGZpbGUgY29udGVudHMubXNvZnR3YXJlQWdlbnShZG5hbWVmQ2xhdWRlcmFsbEFjdGlvbnNJbmNsdWRlZPUAAADIanVtYgAAAEBqdW1kY2JvcgARABCAAACqADibcRNjMnBhLmhhc2guZGF0YQAAAAAYYzJzaB5JyV7fCCuGZWnynityPy0AAACAY2JvcqVjYWxnZnNoYTI1NmNwYWRNAAAAAAAAAAAAAAAAAGRoYXNoWCB+6W4Ke+XbHtzjT/apkUIbEAXYSVpnsU2JkXqhQjOfqGRuYW1lbmp1bWJmIG1hbmlmZXN0amV4Y2x1c2lvbnOBomVzdGFydBikZmxlbmd0aBkeBAAAAj5qdW1iAAAAJ2p1bWRjMmNsABEAEIAAAKoAOJtxA2MycGEuY2xhaW0udjIAAAACD2Nib3KlY2FsZ2ZzaGEyNTZpc2lnbmF0dXJleE1zZWxmI2p1bWJmPS9jMnBhL3VybjpjMnBhOjg3YWUwZTdmLWFhYTUtNDUyNy04OGM5LTVjYjA5MjQ1MjVhZS9jMnBhLnNpZ25hdHVyZWppbnN0YW5jZUlEeCx4bXA6aWlkOmEwZDJhMTU4LTgxZmEtNDNkYi04NjI3LTk3NWQ4YTM1NTY5M3JjcmVhdGVkX2Fzc2VydGlvbnODomN1cmx4LXNlbGYjanVtYmY9YzJwYS5hc3NlcnRpb25zL2MycGEuaW5ncmVkaWVudC52M2RoYXNoWCCsnKioemZAXZYRfyTvehhrCP69awgwDuSOVNrG2pu6NqJjdXJseCpzZWxmI2p1bWJmPWMycGEuYXNzZXJ0aW9ucy9jMnBhLmFjdGlvbnMudjJkaGFzaFgg6+hWCjp9fLXr3gw2UKzxl7SVH6Lkbqcg7e/m/9IfmfOiY3VybHgpc2VsZiNqdW1iZj1jMnBhLmFzc2VydGlvbnMvYzJwYS5oYXNoLmRhdGFkaGFzaFggdHhOwQMSr1PhPip8Dk+hdNTHxGd51qSqCc5KbeQnURd0Y2xhaW1fZ2VuZXJhdG9yX2luZm+jZG5hbWVvQW50aHJvcGljIEZpbGVzZ3ZlcnNpb25lMS4wLjBrc3BlY1ZlcnNpb25lMi40LjAAABA4anVtYgAAAChqdW1kYzJjcwARABCAAACqADibcQNjMnBhLnNpZ25hdHVyZQAAABAIY2JvctKEWQISogEmGCFZAgowggIGMIIBjaADAgECAhRA5aAK7sI50L64g/oGQgU9Z1UTADAKBggqhkjOPQQDAzBJMRcwFQYDVQQKEw5BbnRocm9waWMsIFBCQzEuMCwGA1UEAxMlQW50aHJvcGljIENvbnRlbnQgQ3JlZGVudGlhbHMgUm9vdCBDQTAeFw0yNjA4MDcxODQzNTZaFw0yODA4MDYxOTQzNTZaMEQxFzAVBgNVBAoTDkFudGhyb3BpYywgUEJDMSkwJwYDVQQDEyBBbnRocm9waWMgQ2xhdWRlIENvbnRlbnQgU2lnbmluZzBZMBMGByqGSM49AgEGCCqGSM49AwEHA0IABJh6CmvLUBgFFNU0vUKlOVtE6djd17L5SuwX0LemFisBM3dkd/3cyjxFA3Qo5S46fX0/ihY0VZ7mfb9KF703t5OjWDBWMA4GA1UdDwEB/wQEAwIHgDAVBgNVHSUEDjAMBgorBgEEAYPoXgIBMAwGA1UdEwEB/wQCMAAwHwYDVR0jBBgwFoAUzlHiBIFOZFsj+OPEz5o+nMHXXMIwCgYIKoZIzj0EAwMDZwAwZAIwMXMdFJ4BetLLVY7ORuE9noqbbAZOZn/aArXyTwFAZfKrPzxF2vPoJNf1+UCdg1XGAjBwX1zd9WGqYkqmL5SFqw1QySjr1zJfpJM9+1rdDwSPLMOPOjKuiXjoU/pUUeG9RwmhY3BhZFkNngAAAAAAAAAAAAAAAAAAAAAAAAAAAAAAAAAAAAAAAAAAAAAAAAAAAAAAAAAAAAAAAAAAAAAAAAAAAAAAAAAAAAAAAAAAAAAAAAAAAAAAAAAAAAAAAAAAAAAAAAAAAAAAAAAAAAAAAAAAAAAAAAAAAAAAAAAAAAAAAAAAAAAAAAAAAAAAAAAAAAAAAAAAAAAAAAAAAAAAAAAAAAAAAAAAAAAAAAAAAAAAAAAAAAAAAAAAAAAAAAAAAAAAAAAAAAAAAAAAAAAAAAAAAAAAAAAAAAAAAAAAAAAAAAAAAAAAAAAAAAAAAAAAAAAAAAAAAAAAAAAAAAAAAAAAAAAAAAAAAAAAAAAAAAAAAAAAAAAAAAAAAAAAAAAAAAAAAAAAAAAAAAAAAAAAAAAAAAAAAAAAAAAAAAAAAAAAAAAAAAAAAAAAAAAAAAAAAAAAAAAAAAAAAAAAAAAAAAAAAAAAAAAAAAAAAAAAAAAAAAAAAAAAAAAAAAAAAAAAAAAAAAAAAAAAAAAAAAAAAAAAAAAAAAAAAAAAAAAAAAAAAAAAAAAAAAAAAAAAAAAAAAAAAAAAAAAAAAAAAAAAAAAAAAAAAAAAAAAAAAAAAAAAAAAAAAAAAAAAAAAAAAAAAAAAAAAAAAAAAAAAAAAAAAAAAAAAAAAAAAAAAAAAAAAAAAAAAAAAAAAAAAAAAAAAAAAAAAAAAAAAAAAAAAAAAAAAAAAAAAAAAAAAAAAAAAAAAAAAAAAAAAAAAAAAAAAAAAAAAAAAAAAAAAAAAAAAAAAAAAAAAAAAAAAAAAAAAAAAAAAAAAAAAAAAAAAAAAAAAAAAAAAAAAAAAAAAAAAAAAAAAAAAAAAAAAAAAAAAAAAAAAAAAAAAAAAAAAAAAAAAAAAAAAAAAAAAAAAAAAAAAAAAAAAAAAAAAAAAAAAAAAAAAAAAAAAAAAAAAAAAAAAAAAAAAAAAAAAAAAAAAAAAAAAAAAAAAAAAAAAAAAAAAAAAAAAAAAAAAAAAAAAAAAAAAAAAAAAAAAAAAAAAAAAAAAAAAAAAAAAAAAAAAAAAAAAAAAAAAAAAAAAAAAAAAAAAAAAAAAAAAAAAAAAAAAAAAAAAAAAAAAAAAAAAAAAAAAAAAAAAAAAAAAAAAAAAAAAAAAAAAAAAAAAAAAAAAAAAAAAAAAAAAAAAAAAAAAAAAAAAAAAAAAAAAAAAAAAAAAAAAAAAAAAAAAAAAAAAAAAAAAAAAAAAAAAAAAAAAAAAAAAAAAAAAAAAAAAAAAAAAAAAAAAAAAAAAAAAAAAAAAAAAAAAAAAAAAAAAAAAAAAAAAAAAAAAAAAAAAAAAAAAAAAAAAAAAAAAAAAAAAAAAAAAAAAAAAAAAAAAAAAAAAAAAAAAAAAAAAAAAAAAAAAAAAAAAAAAAAAAAAAAAAAAAAAAAAAAAAAAAAAAAAAAAAAAAAAAAAAAAAAAAAAAAAAAAAAAAAAAAAAAAAAAAAAAAAAAAAAAAAAAAAAAAAAAAAAAAAAAAAAAAAAAAAAAAAAAAAAAAAAAAAAAAAAAAAAAAAAAAAAAAAAAAAAAAAAAAAAAAAAAAAAAAAAAAAAAAAAAAAAAAAAAAAAAAAAAAAAAAAAAAAAAAAAAAAAAAAAAAAAAAAAAAAAAAAAAAAAAAAAAAAAAAAAAAAAAAAAAAAAAAAAAAAAAAAAAAAAAAAAAAAAAAAAAAAAAAAAAAAAAAAAAAAAAAAAAAAAAAAAAAAAAAAAAAAAAAAAAAAAAAAAAAAAAAAAAAAAAAAAAAAAAAAAAAAAAAAAAAAAAAAAAAAAAAAAAAAAAAAAAAAAAAAAAAAAAAAAAAAAAAAAAAAAAAAAAAAAAAAAAAAAAAAAAAAAAAAAAAAAAAAAAAAAAAAAAAAAAAAAAAAAAAAAAAAAAAAAAAAAAAAAAAAAAAAAAAAAAAAAAAAAAAAAAAAAAAAAAAAAAAAAAAAAAAAAAAAAAAAAAAAAAAAAAAAAAAAAAAAAAAAAAAAAAAAAAAAAAAAAAAAAAAAAAAAAAAAAAAAAAAAAAAAAAAAAAAAAAAAAAAAAAAAAAAAAAAAAAAAAAAAAAAAAAAAAAAAAAAAAAAAAAAAAAAAAAAAAAAAAAAAAAAAAAAAAAAAAAAAAAAAAAAAAAAAAAAAAAAAAAAAAAAAAAAAAAAAAAAAAAAAAAAAAAAAAAAAAAAAAAAAAAAAAAAAAAAAAAAAAAAAAAAAAAAAAAAAAAAAAAAAAAAAAAAAAAAAAAAAAAAAAAAAAAAAAAAAAAAAAAAAAAAAAAAAAAAAAAAAAAAAAAAAAAAAAAAAAAAAAAAAAAAAAAAAAAAAAAAAAAAAAAAAAAAAAAAAAAAAAAAAAAAAAAAAAAAAAAAAAAAAAAAAAAAAAAAAAAAAAAAAAAAAAAAAAAAAAAAAAAAAAAAAAAAAAAAAAAAAAAAAAAAAAAAAAAAAAAAAAAAAAAAAAAAAAAAAAAAAAAAAAAAAAAAAAAAAAAAAAAAAAAAAAAAAAAAAAAAAAAAAAAAAAAAAAAAAAAAAAAAAAAAAAAAAAAAAAAAAAAAAAAAAAAAAAAAAAAAAAAAAAAAAAAAAAAAAAAAAAAAAAAAAAAAAAAAAAAAAAAAAAAAAAAAAAAAAAAAAAAAAAAAAAAAAAAAAAAAAAAAAAAAAAAAAAAAAAAAAAAAAAAAAAAAAAAAAAAAAAAAAAAAAAAAAAAAAAAAAAAAAAAAAAAAAAAAAAAAAAAAAAAAAAAAAAAAAAAAAAAAAAAAAAAAAAAAAAAAAAAAAAAAAAAAAAAAAAAAAAAAAAAAAAAAAAAAAAAAAAAAAAAAAAAAAAAAAAAAAAAAAAAAAAAAAAAAAAAAAAAAAAAAAAAAAAAAAAAAAAAAAAAAAAAAAAAAAAAAAAAAAAAAAAAAAAAAAAAAAAAAAAAAAAAAAAAAAAAAAAAAAAAAAAAAAAAAAAAAAAAAAAAAAAAAAAAAAAAAAAAAAAAAAAAAAAAAAAAAAAAAAAAAAAAAAAAAAAAAAAAAAAAAAAAAAAAAAAAAAAAAAAAAAAAAAAAAAAAAAAAAAAAAAAAAAAAAAAAAAAAAAAAAAAAAAAAAAAAAAAAAAAAAAAAAAAAAAAAAAAAAAAAAAAAAAAAAAAAAAAAAAAAAAAAAAAAAAAAAAAAAAAAAAAAAAAAAAAAAAAAAAAAAAAAAAAAAAAAAAAAAAAAAAAAAAAAAAAAAAAAAAAAAAAAAAAAAAAAAAAAAAAAAAAAAAAAAAAAAAAAAAAAAAAAAAAAAAAAAAAAAAAAAAAAAAAAAAAAAAAAAAAAAAAAAAAAAAAAAAAAAAAAAAAAAAAAAAAAAAAAAAAAAAAAAAAAAAAAAAAAAAAAAAAAAAAAAAAAAAAAAAAAAAAAAAAAAAAAAAAAAAAAAAAAAAAAAAAAAAAAAAAAAAAAAAAAAAAAAAAAAAAAAAAAAAAAAAAAAAAAAAAAAAAAAAAAAAAAAAAAAAAAAAAAAAAAAAAAAAAAAAAAAAAAAAAAAAAAAAAAAAAAAAAAAAAAAAAAAAAAAAAAAAAAAAAAAAAAAAAAAAAAAAAAAAAAAAAAAAAAAAAAAAAAAAAAAAAAAAAAAAAAAAAAAAAAAAAAAAAAAAAAAAAAAAAAAAAAAAAAAAAAAAAAAAAAAAAAAAAAAAAAAAAAAAAAAAAAAAAAAAAAAAAAAAAAAAAAAAAAAAAAAAAAAAAAAAAAAAAAAAAAAAAAAAAAAAAAAAAAAAAAAAAAAAAAAAAAAAAAAAAAAAAAAAAAAAAAAAAAAAAAAAAAAAAAAAAAAAAAAAAAAAAAAAAAAAAAAAAAAAAAAAAAAAAAAAAAAAAAAAAAAAAAAAAAAAAAAAAAAAAAAAAAAAAAAAAAAAAAAAAAAAAAAAAAAAAAAAAAAAAAAAAAAAAAAAAAAAAAAAAAAAAAAAAAAAAAAAAAAAAAAAAAAAAAAAAAAAAAAAAAAAAAAAAAAAAAAAAAAAAAAAAAAAAAAAAAAAAAAAAAAAAAAAAAAAAAAAAAAAAAAAAAAAAAAAAAAAAAAAAAAAAAAAAAAAAAAAAAAAAAAAAAAAAAAAAAAAAAAAAAAAAAAAAAAAAAAAAAAAAAAAAAAAAAAAAAAAAAAAAAAAAAAAAAAAAAAAAAAAAAAAAAAAAAAAAAAAAAAAAAAAAAAAAAAAAAAAAAAAAAAAAAAAAAAAAAAAAAAAAAAAAAAAAAAAAAAAAAAAAAAAAAAAAAAAAAAAAAAAAAAAAAAAAAAAAAAAAAAAAAAAAAAAAAAAAAAAAAAAAAAAAAAAAAAAAAAAAAAAAAAAAAAAAAAAAAAAAAAAAAAAAAAAAAAAAAAAAAAAAAAAAAAAAAAAAAAAAAAAAAAAAAAAAAAAAAAAAAAAAAAAAAAAAAAAAAAAAAAAAAAAAAAAAAAAAAAAAAAAAAAAAAAAAAAAAAAAAAAAAAAAAAAAAAAAAAAAAAAAAAAAAAAAAAAAAAAAAAAAAAAAAAAAAAAAAAAAAAAAAAAAAAAAAAAAAAAAAAAAAAAAAAAAAAAAAAAAAAAAAAAAAAAAAAAAAAAAAAAAAAAAAAAAAAAAAAAAAAAAAAAAAAAAAAAAAAAAAAAAAAAAAAAAAAAAAAAAAAAAAAAAAAAAAAAAAAAAAAAAAAAAAAAAAAAAAAAAAAAPZYQPpi4aku1P4YwKk3i2wMxSygIu2c48tG5z4Qn9quXY0DlGKdZA025EyqhgLuknJlRNrblPafszXGxjim1eMY4ww=</c2pa:manifest></metadata>
<path d="M801.84 21.0896C833.213 -6.20371 883.853 -7.01705 916.4 18.7163C936.066 33.8896 947.92 58.063 949.093 82.7563C953.493 82.7563 957.893 82.7696 962.306 82.7696C962.306 87.3296 962.306 91.8896 962.306 96.463C957.826 96.463 953.36 96.4763 948.893 96.463C946.906 119.93 935.306 142.61 916.626 157.13C885.013 182.276 836.186 182.37 804.573 157.183C785.88 142.65 774.253 119.956 772.266 96.463C767.76 96.4763 763.253 96.463 758.76 96.463C758.733 91.8896 758.746 87.3296 758.76 82.7696C763.133 82.7696 767.52 82.7029 771.906 82.8629C773.36 59.4229 783.746 36.3563 801.84 21.0896ZM815.56 29.4896C798.88 41.9296 788.84 62.1163 787.6 82.7563C836.173 82.7696 884.746 82.7696 933.32 82.7563C932.213 65.303 925.093 48.1163 912.626 35.7429C887.64 10.2629 843.693 7.87627 815.56 29.4896ZM787.88 96.4896C789.533 111.796 795.8 126.703 806.28 138.063C830.24 164.836 874.333 168.69 903.373 148.076C920.293 136.383 931.026 116.85 933.04 96.4896C884.653 96.4629 836.266 96.4629 787.88 96.4896Z" fill="#0B0B0C"/>
<path d="M1559.67 0.0898438C1585.97 57.5965 1612.17 115.157 1638.33 172.73C1632.63 172.73 1626.92 172.757 1621.23 172.717C1600.92 125.69 1580.64 78.6498 1560.24 31.6632C1540.28 78.6898 1520.37 125.743 1500.37 172.743C1494.49 172.743 1488.63 172.69 1482.77 172.77C1508.25 115.143 1534.05 57.6632 1559.67 0.0898438Z" fill="#0B0B0C"/>
<path d="M273.254 2.95626C278.347 2.90292 283.441 2.92959 288.534 2.91626C288.574 38.3563 288.521 73.8096 288.561 109.25C288.667 124.396 295.401 139.516 307.187 149.156C326.214 165.05 356.427 165.303 375.667 149.61C387.734 139.983 394.694 124.663 394.787 109.303C394.814 73.8496 394.814 38.4096 394.787 2.9696C399.854 2.86294 404.921 2.99628 409.987 2.84961C410.241 37.8629 410.027 72.8763 410.094 107.89C410.387 127.063 402.374 146.383 387.867 159.063C360.894 183.436 314.521 181.303 290.347 153.943C279.334 141.85 273.361 125.516 273.267 109.21C273.241 73.7829 273.281 38.3696 273.254 2.95626Z" fill="#0B0B0C"/>
<path d="M539.119 2.92975C580.373 2.92975 621.626 2.91642 662.879 2.92975C662.893 7.70309 662.893 12.4631 662.893 17.2364C644.799 17.2497 626.706 17.2364 608.626 17.2364C608.626 69.1964 608.626 121.143 608.626 173.09C603.533 173.103 598.439 173.09 593.346 173.103C593.333 121.143 593.333 69.1964 593.346 17.2497C575.266 17.2231 557.186 17.2631 539.119 17.2364C539.106 12.4631 539.106 7.68975 539.119 2.92975Z" fill="#0B0B0C"/>
<path d="M1087.35 2.9306C1109.96 2.9306 1132.59 2.9039 1155.21 2.9439C1169.12 2.87724 1183.13 8.26392 1192.87 18.3306C1208.89 34.4373 1211.55 61.4106 1200.09 80.8239C1191.35 96.1439 1173.99 105.597 1156.47 105.717C1138.44 105.811 1120.4 105.731 1102.37 105.757C1102.36 128.211 1102.39 150.651 1102.36 173.091C1097.35 173.091 1092.33 173.104 1087.33 173.091C1087.32 116.371 1087.31 59.6506 1087.35 2.9306ZM1102.35 17.2639C1102.39 41.9839 1102.35 66.7173 1102.37 91.4373C1116.43 91.4506 1130.48 91.4373 1144.53 91.4506C1154.76 91.7039 1165.76 91.8906 1174.61 85.9173C1191.88 75.3973 1196.27 50.2506 1185.57 33.5973C1179.23 23.3173 1167.27 17.1839 1155.28 17.2506C1137.64 17.2373 1120 17.2239 1102.35 17.2639Z" fill="#0B0B0C"/>
<path d="M1342.15 2.92936C1347.13 2.91603 1352.13 2.92935 1357.15 2.91602C1357.19 59.6493 1357.17 116.369 1357.16 173.103C1352.13 173.089 1347.13 173.103 1342.13 173.076C1342.13 116.369 1342.12 59.6494 1342.15 2.92936Z" fill="#0B0B0C"/>
<path d="M0 20.8224C4.57333 15.8758 9.12 10.9158 13.7067 5.98242C66.72 5.99576 119.747 5.9691 172.76 5.99577C168.587 10.9558 164.4 15.9158 160.187 20.8491C106.787 20.8091 53.4 20.8491 0 20.8224Z" fill="#0B0B0C"/>
<path d="M14.0937 79.0368C66.9737 78.8501 119.867 79.0101 172.76 78.9568C168.654 83.9168 164.414 88.7568 160.347 93.7435C106.907 93.8768 53.4537 93.7701 0.0136719 93.7968C4.80034 88.9835 8.93367 83.3568 14.0937 79.0368Z" fill="#0B0B0C"/>
<path d="M13.814 151.889C66.8007 151.995 119.774 151.875 172.761 151.942C168.601 156.889 164.414 161.822 160.254 166.755C106.841 166.782 53.4407 166.782 0.0273438 166.755C4.60068 161.782 9.14734 156.769 13.814 151.889Z" fill="#0B0B0C"/>
<path d="M682.454 264.837C691.974 262.077 703.214 268.424 704.667 278.477C706.614 287.477 700.294 297.21 691.174 298.797C682.347 300.97 672.201 295.61 669.961 286.61C667.107 277.49 673.027 266.824 682.454 264.837ZM681.094 271.49C672.961 275.784 673.681 289.37 682.361 292.624C690.054 296.304 699.907 289.637 698.947 281.064C698.961 272.424 688.294 266.957 681.094 271.49Z" fill="#0B0B0C"/>
<path d="M873.107 264.649C882.974 262.196 894.081 269.489 894.721 279.863C896.147 289.703 887.734 299.263 877.801 299.209C868.414 299.983 859.334 292.209 859.201 282.703C858.481 274.276 864.787 266.089 873.107 264.649ZM871.734 271.089C863.387 274.689 863.041 288.009 871.147 292.089C878.281 296.396 888.734 291.076 888.787 282.569C889.947 273.716 879.481 266.929 871.734 271.089Z" fill="#0B0B0C"/>
<path d="M429.934 264.797C432.227 264.797 434.52 264.784 436.827 264.797C441.307 276.077 445.76 287.384 450.214 298.677C448.054 298.664 445.907 298.664 443.76 298.664C442.854 296.264 441.934 293.877 441 291.49C435.867 291.49 430.734 291.49 425.6 291.49C424.667 293.877 423.747 296.264 422.854 298.677C420.747 298.664 418.64 298.664 416.547 298.677C421 287.384 425.454 276.09 429.934 264.797ZM433.214 271.29C431.44 276.25 429.507 281.157 427.667 286.09C431.414 286.077 435.187 286.077 438.947 286.09C437.054 281.144 435.28 276.157 433.214 271.29Z" fill="#0B0B0C"/>
<path d="M505.133 287.37C504.839 279.85 505.093 272.317 505.039 264.81C506.466 264.797 509.346 264.783 510.786 264.783C510.959 272.063 510.653 279.357 510.933 286.65C511.266 291.237 516.213 294.423 520.586 293.41C524.386 292.837 527.279 289.143 527.066 285.33C527.133 278.49 527.039 271.637 527.079 264.797C529.013 264.797 530.946 264.797 532.893 264.797C532.839 272.023 532.999 279.263 532.839 286.49C532.773 293.557 526.186 299.37 519.239 299.223C512.413 299.61 505.706 294.29 505.133 287.37Z" fill="#0B0B0C"/>
<path d="M590.213 270.304C590.226 268.45 590.24 266.624 590.253 264.797C598.626 264.81 607 264.784 615.373 264.81C615.36 266.637 615.36 268.477 615.373 270.317C612.16 270.304 608.96 270.317 605.773 270.33C605.76 279.77 605.773 289.224 605.76 298.677C603.813 298.664 601.866 298.664 599.933 298.677C599.866 289.21 600.026 279.744 599.84 270.277C596.626 270.317 593.426 270.317 590.213 270.304Z" fill="#0B0B0C"/>
<path d="M763.721 298.624C763.774 287.344 763.694 276.077 763.747 264.797C766.267 264.784 768.787 264.797 771.334 264.797C774.987 273.064 778.521 281.384 782.214 289.637C785.801 281.37 789.427 273.117 792.974 264.824C795.481 264.797 797.987 264.797 800.507 264.797C800.521 276.09 800.521 287.384 800.507 298.677C798.561 298.664 796.614 298.664 794.681 298.677C794.667 290.69 794.667 282.69 794.681 274.704C791.147 282.664 787.681 290.664 784.201 298.637C783.201 298.677 781.187 298.744 780.187 298.77C776.467 291.05 773.454 282.997 769.667 275.304C769.481 283.104 769.614 290.89 769.574 298.69C767.614 298.664 765.654 298.624 763.721 298.624Z" fill="#0B0B0C"/>
<path d="M948.627 264.809C957.013 264.795 965.4 264.795 973.787 264.809C973.773 266.635 973.76 268.462 973.773 270.316C970.56 270.302 967.36 270.316 964.16 270.329C964.16 279.782 964.173 289.222 964.16 298.675C962.2 298.662 960.253 298.662 958.32 298.675C958.307 289.222 958.32 279.782 958.32 270.329C955.08 270.316 951.853 270.302 948.64 270.316C948.627 268.476 948.613 266.635 948.627 264.809Z" fill="#0B0B0C"/>
<path d="M1032.01 264.797C1033.93 264.797 1035.88 264.797 1037.84 264.81C1037.85 276.09 1037.85 287.384 1037.84 298.677C1035.88 298.664 1033.93 298.664 1032.01 298.677C1032 287.384 1032 276.09 1032.01 264.797Z" fill="#0B0B0C"/>
<path d="M1095.2 264.81C1097.37 264.797 1099.57 264.797 1101.79 264.797C1105.16 273.53 1108.63 282.237 1111.91 291.01C1114.93 282.384 1120.27 274.144 1120.33 264.797C1122.35 264.797 1124.36 264.797 1126.39 264.81C1126.53 268.184 1125.95 271.557 1124.67 274.704C1121.48 282.717 1118.17 290.677 1114.97 298.677C1112.93 298.664 1110.91 298.664 1108.91 298.677C1104.35 287.37 1099.76 276.104 1095.2 264.81Z" fill="#0B0B0C"/>
<path d="M1184.28 264.809C1191.63 264.795 1198.96 264.795 1206.32 264.809C1206.29 266.635 1206.29 268.462 1206.32 270.316C1200.91 270.329 1195.51 270.302 1190.11 270.329C1190.08 273.182 1190.08 276.036 1190.09 278.902C1194.96 278.902 1199.83 278.902 1204.69 278.902C1204.68 280.729 1204.68 282.569 1204.71 284.409C1199.83 284.409 1194.97 284.409 1190.11 284.409C1190.08 287.329 1190.08 290.249 1190.09 293.182C1195.59 293.195 1201.09 293.182 1206.6 293.182C1206.56 295.049 1206.53 296.902 1206.41 298.782C1199.04 298.555 1191.65 298.729 1184.28 298.675C1184.27 287.382 1184.27 276.089 1184.28 264.809Z" fill="#0B0B0C"/>
</svg>
